<mxfile host="app.diagrams.net" modified="2024-04-02T02:43:08.337Z" agent="Mozilla/5.0 (Windows NT 10.0; Win64; x64) AppleWebKit/537.36 (KHTML, like Gecko) Chrome/123.0.0.0 Safari/537.36" etag="wVs7XixYAo5QTjPp1C3D" version="24.2.1" type="device" pages="2">
  <diagram name="페이지-1" id="47vKFB3VLX7XfeOKEyLG">
    <mxGraphModel dx="1434" dy="768" grid="1" gridSize="10" guides="1" tooltips="1" connect="1" arrows="1" fold="1" page="1" pageScale="1" pageWidth="827" pageHeight="1169" math="0" shadow="0">
      <root>
        <mxCell id="0" />
        <mxCell id="1" parent="0" />
        <mxCell id="3YHKIk54glQ2s1RMrXVU-10" style="edgeStyle=none;curved=1;rounded=0;orthogonalLoop=1;jettySize=auto;html=1;exitX=0.5;exitY=1;exitDx=0;exitDy=0;entryX=0.5;entryY=0;entryDx=0;entryDy=0;fontSize=12;startSize=8;endSize=8;" parent="1" source="3YHKIk54glQ2s1RMrXVU-18" target="3YHKIk54glQ2s1RMrXVU-19" edge="1">
          <mxGeometry relative="1" as="geometry" />
        </mxCell>
        <mxCell id="3YHKIk54glQ2s1RMrXVU-11" style="edgeStyle=none;curved=1;rounded=0;orthogonalLoop=1;jettySize=auto;html=1;exitX=0.5;exitY=1;exitDx=0;exitDy=0;entryX=0.5;entryY=0;entryDx=0;entryDy=0;fontSize=12;startSize=8;endSize=8;" parent="1" source="3YHKIk54glQ2s1RMrXVU-18" target="3YHKIk54glQ2s1RMrXVU-20" edge="1">
          <mxGeometry relative="1" as="geometry" />
        </mxCell>
        <mxCell id="3YHKIk54glQ2s1RMrXVU-12" style="edgeStyle=none;curved=1;rounded=0;orthogonalLoop=1;jettySize=auto;html=1;exitX=0.5;exitY=1;exitDx=0;exitDy=0;entryX=0.5;entryY=0;entryDx=0;entryDy=0;fontSize=12;startSize=8;endSize=8;" parent="1" source="3YHKIk54glQ2s1RMrXVU-18" target="3YHKIk54glQ2s1RMrXVU-21" edge="1">
          <mxGeometry relative="1" as="geometry" />
        </mxCell>
        <mxCell id="3YHKIk54glQ2s1RMrXVU-13" style="edgeStyle=none;curved=1;rounded=0;orthogonalLoop=1;jettySize=auto;html=1;exitX=0.5;exitY=1;exitDx=0;exitDy=0;entryX=0.5;entryY=0;entryDx=0;entryDy=0;fontSize=12;startSize=8;endSize=8;" parent="1" source="3YHKIk54glQ2s1RMrXVU-18" target="3YHKIk54glQ2s1RMrXVU-22" edge="1">
          <mxGeometry relative="1" as="geometry" />
        </mxCell>
        <mxCell id="3YHKIk54glQ2s1RMrXVU-14" style="edgeStyle=none;curved=1;rounded=0;orthogonalLoop=1;jettySize=auto;html=1;exitX=0.5;exitY=1;exitDx=0;exitDy=0;entryX=0.5;entryY=0;entryDx=0;entryDy=0;fontSize=12;startSize=8;endSize=8;" parent="1" source="3YHKIk54glQ2s1RMrXVU-18" target="3YHKIk54glQ2s1RMrXVU-23" edge="1">
          <mxGeometry relative="1" as="geometry" />
        </mxCell>
        <mxCell id="3YHKIk54glQ2s1RMrXVU-15" style="edgeStyle=none;curved=1;rounded=0;orthogonalLoop=1;jettySize=auto;html=1;exitX=0.5;exitY=1;exitDx=0;exitDy=0;entryX=0.5;entryY=0;entryDx=0;entryDy=0;fontSize=12;startSize=8;endSize=8;" parent="1" source="3YHKIk54glQ2s1RMrXVU-18" target="3YHKIk54glQ2s1RMrXVU-24" edge="1">
          <mxGeometry relative="1" as="geometry" />
        </mxCell>
        <mxCell id="3YHKIk54glQ2s1RMrXVU-16" style="edgeStyle=none;curved=1;rounded=0;orthogonalLoop=1;jettySize=auto;html=1;exitX=0.5;exitY=1;exitDx=0;exitDy=0;entryX=0.5;entryY=0;entryDx=0;entryDy=0;fontSize=12;startSize=8;endSize=8;" parent="1" source="3YHKIk54glQ2s1RMrXVU-18" target="3YHKIk54glQ2s1RMrXVU-25" edge="1">
          <mxGeometry relative="1" as="geometry" />
        </mxCell>
        <mxCell id="3YHKIk54glQ2s1RMrXVU-17" style="edgeStyle=none;curved=1;rounded=0;orthogonalLoop=1;jettySize=auto;html=1;exitX=0.5;exitY=1;exitDx=0;exitDy=0;entryX=0.5;entryY=0;entryDx=0;entryDy=0;fontSize=12;startSize=8;endSize=8;" parent="1" source="3YHKIk54glQ2s1RMrXVU-18" target="3YHKIk54glQ2s1RMrXVU-26" edge="1">
          <mxGeometry relative="1" as="geometry" />
        </mxCell>
        <mxCell id="3YHKIk54glQ2s1RMrXVU-18" value="안내사항&lt;br&gt;(guide)" style="rounded=0;whiteSpace=wrap;html=1;" parent="1" vertex="1">
          <mxGeometry x="340" y="300" width="120" height="60" as="geometry" />
        </mxCell>
        <mxCell id="3YHKIk54glQ2s1RMrXVU-19" value="&lt;font color=&quot;#ff0000&quot;&gt;&lt;u&gt;pcode&lt;br&gt;(장소코드)&lt;/u&gt;&lt;/font&gt;" style="ellipse;whiteSpace=wrap;html=1;" parent="1" vertex="1">
          <mxGeometry x="10" y="410" width="80" height="50" as="geometry" />
        </mxCell>
        <mxCell id="3YHKIk54glQ2s1RMrXVU-20" value="pname&lt;div&gt;(장소이름)&lt;/div&gt;" style="ellipse;whiteSpace=wrap;html=1;" parent="1" vertex="1">
          <mxGeometry x="110" y="410" width="80" height="50" as="geometry" />
        </mxCell>
        <mxCell id="3YHKIk54glQ2s1RMrXVU-21" value="ptype&lt;br&gt;(장소 종류)" style="ellipse;whiteSpace=wrap;html=1;" parent="1" vertex="1">
          <mxGeometry x="210" y="410" width="80" height="50" as="geometry" />
        </mxCell>
        <mxCell id="3YHKIk54glQ2s1RMrXVU-22" value="paddr&lt;div&gt;(장소 주소)&lt;/div&gt;" style="ellipse;whiteSpace=wrap;html=1;" parent="1" vertex="1">
          <mxGeometry x="310" y="410" width="80" height="50" as="geometry" />
        </mxCell>
        <mxCell id="3YHKIk54glQ2s1RMrXVU-23" value="ptel&lt;div&gt;(장소 연락처)&lt;/div&gt;" style="ellipse;whiteSpace=wrap;html=1;" parent="1" vertex="1">
          <mxGeometry x="410" y="410" width="80" height="50" as="geometry" />
        </mxCell>
        <mxCell id="3YHKIk54glQ2s1RMrXVU-24" value="pgps&lt;div&gt;(장소 gps값)&lt;/div&gt;" style="ellipse;whiteSpace=wrap;html=1;" parent="1" vertex="1">
          <mxGeometry x="510" y="410" width="80" height="50" as="geometry" />
        </mxCell>
        <mxCell id="3YHKIk54glQ2s1RMrXVU-25" value="pcoment&lt;div&gt;(장소 설명)&lt;/div&gt;" style="ellipse;whiteSpace=wrap;html=1;" parent="1" vertex="1">
          <mxGeometry x="610" y="410" width="80" height="50" as="geometry" />
        </mxCell>
        <mxCell id="3YHKIk54glQ2s1RMrXVU-26" value="premark&lt;div&gt;(참고사항)&lt;/div&gt;" style="ellipse;whiteSpace=wrap;html=1;" parent="1" vertex="1">
          <mxGeometry x="710" y="410" width="80" height="50" as="geometry" />
        </mxCell>
        <mxCell id="3YHKIk54glQ2s1RMrXVU-27" style="edgeStyle=none;curved=1;rounded=0;orthogonalLoop=1;jettySize=auto;html=1;exitX=0.5;exitY=1;exitDx=0;exitDy=0;entryX=0.5;entryY=0;entryDx=0;entryDy=0;fontSize=12;startSize=8;endSize=8;" parent="1" source="3YHKIk54glQ2s1RMrXVU-32" target="3YHKIk54glQ2s1RMrXVU-33" edge="1">
          <mxGeometry relative="1" as="geometry" />
        </mxCell>
        <mxCell id="3YHKIk54glQ2s1RMrXVU-28" style="edgeStyle=none;curved=1;rounded=0;orthogonalLoop=1;jettySize=auto;html=1;exitX=0.5;exitY=1;exitDx=0;exitDy=0;entryX=0.5;entryY=0;entryDx=0;entryDy=0;fontSize=12;startSize=8;endSize=8;" parent="1" source="3YHKIk54glQ2s1RMrXVU-32" target="3YHKIk54glQ2s1RMrXVU-34" edge="1">
          <mxGeometry relative="1" as="geometry" />
        </mxCell>
        <mxCell id="3YHKIk54glQ2s1RMrXVU-29" style="edgeStyle=none;curved=1;rounded=0;orthogonalLoop=1;jettySize=auto;html=1;exitX=0.5;exitY=1;exitDx=0;exitDy=0;entryX=0.5;entryY=0;entryDx=0;entryDy=0;fontSize=12;startSize=8;endSize=8;" parent="1" source="3YHKIk54glQ2s1RMrXVU-32" target="3YHKIk54glQ2s1RMrXVU-35" edge="1">
          <mxGeometry relative="1" as="geometry" />
        </mxCell>
        <mxCell id="3YHKIk54glQ2s1RMrXVU-30" style="edgeStyle=none;curved=1;rounded=0;orthogonalLoop=1;jettySize=auto;html=1;exitX=0.5;exitY=1;exitDx=0;exitDy=0;entryX=0.5;entryY=0;entryDx=0;entryDy=0;fontSize=12;startSize=8;endSize=8;" parent="1" source="3YHKIk54glQ2s1RMrXVU-32" target="3YHKIk54glQ2s1RMrXVU-36" edge="1">
          <mxGeometry relative="1" as="geometry" />
        </mxCell>
        <mxCell id="3YHKIk54glQ2s1RMrXVU-31" style="edgeStyle=none;curved=1;rounded=0;orthogonalLoop=1;jettySize=auto;html=1;exitX=0.5;exitY=1;exitDx=0;exitDy=0;entryX=0.5;entryY=0;entryDx=0;entryDy=0;fontSize=12;startSize=8;endSize=8;" parent="1" source="3YHKIk54glQ2s1RMrXVU-32" target="3YHKIk54glQ2s1RMrXVU-37" edge="1">
          <mxGeometry relative="1" as="geometry" />
        </mxCell>
        <mxCell id="3YHKIk54glQ2s1RMrXVU-32" value="notice&lt;div&gt;(공지사항)&lt;/div&gt;" style="rounded=0;whiteSpace=wrap;html=1;" parent="1" vertex="1">
          <mxGeometry x="340" y="530" width="120" height="60" as="geometry" />
        </mxCell>
        <mxCell id="3YHKIk54glQ2s1RMrXVU-33" value="&lt;font color=&quot;#ff0000&quot;&gt;&lt;u&gt;no&lt;/u&gt;&lt;/font&gt;&lt;div&gt;&lt;font color=&quot;#ff0000&quot;&gt;&lt;u&gt;(글 번호)&lt;/u&gt;&lt;/font&gt;&lt;/div&gt;" style="ellipse;whiteSpace=wrap;html=1;" parent="1" vertex="1">
          <mxGeometry x="160" y="630" width="80" height="50" as="geometry" />
        </mxCell>
        <mxCell id="3YHKIk54glQ2s1RMrXVU-34" value="&lt;span style=&quot;background-color: initial;&quot;&gt;title&lt;/span&gt;&lt;div&gt;&lt;span style=&quot;background-color: initial;&quot;&gt;(글 제목)&lt;/span&gt;&lt;/div&gt;" style="ellipse;whiteSpace=wrap;html=1;" parent="1" vertex="1">
          <mxGeometry x="260" y="630" width="80" height="50" as="geometry" />
        </mxCell>
        <mxCell id="3YHKIk54glQ2s1RMrXVU-35" value="content&lt;br&gt;&lt;div&gt;&lt;span style=&quot;background-color: initial;&quot;&gt;(글 내용)&lt;/span&gt;&lt;/div&gt;" style="ellipse;whiteSpace=wrap;html=1;" parent="1" vertex="1">
          <mxGeometry x="360" y="630" width="80" height="50" as="geometry" />
        </mxCell>
        <mxCell id="3YHKIk54glQ2s1RMrXVU-36" value="resdate&lt;div&gt;(작성일시)&lt;/div&gt;" style="ellipse;whiteSpace=wrap;html=1;" parent="1" vertex="1">
          <mxGeometry x="460" y="630" width="80" height="50" as="geometry" />
        </mxCell>
        <mxCell id="3YHKIk54glQ2s1RMrXVU-37" value="&lt;div&gt;visited&lt;/div&gt;&lt;div&gt;(읽은 횟수)&lt;/div&gt;" style="ellipse;whiteSpace=wrap;html=1;" parent="1" vertex="1">
          <mxGeometry x="560" y="630" width="80" height="50" as="geometry" />
        </mxCell>
        <mxCell id="3YHKIk54glQ2s1RMrXVU-38" style="edgeStyle=none;curved=1;rounded=0;orthogonalLoop=1;jettySize=auto;html=1;exitX=0.5;exitY=1;exitDx=0;exitDy=0;entryX=0.5;entryY=0;entryDx=0;entryDy=0;fontSize=12;startSize=8;endSize=8;" parent="1" source="3YHKIk54glQ2s1RMrXVU-46" target="3YHKIk54glQ2s1RMrXVU-47" edge="1">
          <mxGeometry relative="1" as="geometry" />
        </mxCell>
        <mxCell id="3YHKIk54glQ2s1RMrXVU-39" style="edgeStyle=none;curved=1;rounded=0;orthogonalLoop=1;jettySize=auto;html=1;exitX=0.5;exitY=1;exitDx=0;exitDy=0;entryX=0.5;entryY=0;entryDx=0;entryDy=0;fontSize=12;startSize=8;endSize=8;" parent="1" source="3YHKIk54glQ2s1RMrXVU-46" target="3YHKIk54glQ2s1RMrXVU-49" edge="1">
          <mxGeometry relative="1" as="geometry" />
        </mxCell>
        <mxCell id="3YHKIk54glQ2s1RMrXVU-40" style="edgeStyle=none;curved=1;rounded=0;orthogonalLoop=1;jettySize=auto;html=1;exitX=0.5;exitY=1;exitDx=0;exitDy=0;entryX=0.5;entryY=0;entryDx=0;entryDy=0;fontSize=12;startSize=8;endSize=8;" parent="1" source="3YHKIk54glQ2s1RMrXVU-46" target="3YHKIk54glQ2s1RMrXVU-48" edge="1">
          <mxGeometry relative="1" as="geometry" />
        </mxCell>
        <mxCell id="3YHKIk54glQ2s1RMrXVU-41" style="edgeStyle=none;curved=1;rounded=0;orthogonalLoop=1;jettySize=auto;html=1;exitX=0.5;exitY=1;exitDx=0;exitDy=0;entryX=0.5;entryY=0;entryDx=0;entryDy=0;fontSize=12;startSize=8;endSize=8;" parent="1" source="3YHKIk54glQ2s1RMrXVU-46" target="3YHKIk54glQ2s1RMrXVU-50" edge="1">
          <mxGeometry relative="1" as="geometry" />
        </mxCell>
        <mxCell id="3YHKIk54glQ2s1RMrXVU-42" style="edgeStyle=none;curved=1;rounded=0;orthogonalLoop=1;jettySize=auto;html=1;exitX=0.5;exitY=1;exitDx=0;exitDy=0;entryX=0.5;entryY=0;entryDx=0;entryDy=0;fontSize=12;startSize=8;endSize=8;" parent="1" source="3YHKIk54glQ2s1RMrXVU-46" target="3YHKIk54glQ2s1RMrXVU-51" edge="1">
          <mxGeometry relative="1" as="geometry" />
        </mxCell>
        <mxCell id="3YHKIk54glQ2s1RMrXVU-43" style="edgeStyle=none;curved=1;rounded=0;orthogonalLoop=1;jettySize=auto;html=1;exitX=0.5;exitY=1;exitDx=0;exitDy=0;entryX=0.5;entryY=0;entryDx=0;entryDy=0;fontSize=12;startSize=8;endSize=8;" parent="1" source="3YHKIk54glQ2s1RMrXVU-46" target="3YHKIk54glQ2s1RMrXVU-52" edge="1">
          <mxGeometry relative="1" as="geometry" />
        </mxCell>
        <mxCell id="3YHKIk54glQ2s1RMrXVU-44" style="edgeStyle=none;curved=1;rounded=0;orthogonalLoop=1;jettySize=auto;html=1;exitX=0.5;exitY=1;exitDx=0;exitDy=0;entryX=0.5;entryY=0;entryDx=0;entryDy=0;fontSize=12;startSize=8;endSize=8;" parent="1" source="3YHKIk54glQ2s1RMrXVU-46" target="3YHKIk54glQ2s1RMrXVU-53" edge="1">
          <mxGeometry relative="1" as="geometry" />
        </mxCell>
        <mxCell id="3YHKIk54glQ2s1RMrXVU-45" style="edgeStyle=none;curved=1;rounded=0;orthogonalLoop=1;jettySize=auto;html=1;exitX=0.5;exitY=1;exitDx=0;exitDy=0;entryX=0.5;entryY=0;entryDx=0;entryDy=0;fontSize=12;startSize=8;endSize=8;" parent="1" source="3YHKIk54glQ2s1RMrXVU-46" target="3YHKIk54glQ2s1RMrXVU-54" edge="1">
          <mxGeometry relative="1" as="geometry" />
        </mxCell>
        <mxCell id="3YHKIk54glQ2s1RMrXVU-46" value="&lt;div&gt;qna&lt;/div&gt;&lt;div&gt;(묻고 답하기)&lt;/div&gt;" style="rounded=0;whiteSpace=wrap;html=1;" parent="1" vertex="1">
          <mxGeometry x="340" y="740" width="120" height="60" as="geometry" />
        </mxCell>
        <mxCell id="3YHKIk54glQ2s1RMrXVU-47" value="&lt;font color=&quot;#ff0000&quot;&gt;&lt;u&gt;no&lt;/u&gt;&lt;/font&gt;&lt;div&gt;&lt;font color=&quot;#ff0000&quot;&gt;&lt;u&gt;(글 번호)&lt;/u&gt;&lt;/font&gt;&lt;/div&gt;" style="ellipse;whiteSpace=wrap;html=1;" parent="1" vertex="1">
          <mxGeometry x="10" y="860" width="80" height="50" as="geometry" />
        </mxCell>
        <mxCell id="3YHKIk54glQ2s1RMrXVU-48" value="parno&lt;br&gt;&lt;div&gt;&lt;span style=&quot;background-color: initial;&quot;&gt;(부모글 번호)&lt;/span&gt;&lt;/div&gt;" style="ellipse;whiteSpace=wrap;html=1;" parent="1" vertex="1">
          <mxGeometry x="210" y="860" width="80" height="50" as="geometry" />
        </mxCell>
        <mxCell id="3YHKIk54glQ2s1RMrXVU-49" value="plevel&lt;br&gt;&lt;div&gt;&lt;span style=&quot;background-color: initial;&quot;&gt;(글 종류)&lt;/span&gt;&lt;/div&gt;" style="ellipse;whiteSpace=wrap;html=1;" parent="1" vertex="1">
          <mxGeometry x="110" y="860" width="80" height="50" as="geometry" />
        </mxCell>
        <mxCell id="3YHKIk54glQ2s1RMrXVU-50" value="&lt;div&gt;title&lt;/div&gt;&lt;div&gt;(글 제목)&lt;/div&gt;" style="ellipse;whiteSpace=wrap;html=1;" parent="1" vertex="1">
          <mxGeometry x="310" y="860" width="80" height="50" as="geometry" />
        </mxCell>
        <mxCell id="3YHKIk54glQ2s1RMrXVU-51" value="&lt;div&gt;content&lt;/div&gt;&lt;div&gt;(글 내용)&lt;/div&gt;" style="ellipse;whiteSpace=wrap;html=1;" parent="1" vertex="1">
          <mxGeometry x="410" y="860" width="80" height="50" as="geometry" />
        </mxCell>
        <mxCell id="3YHKIk54glQ2s1RMrXVU-52" value="resdate&lt;div&gt;(작성일시)&lt;/div&gt;" style="ellipse;whiteSpace=wrap;html=1;" parent="1" vertex="1">
          <mxGeometry x="510" y="860" width="80" height="50" as="geometry" />
        </mxCell>
        <mxCell id="3YHKIk54glQ2s1RMrXVU-53" value="&lt;div&gt;visited&lt;/div&gt;&lt;div&gt;(읽은 횟수)&lt;/div&gt;" style="ellipse;whiteSpace=wrap;html=1;" parent="1" vertex="1">
          <mxGeometry x="610" y="860" width="80" height="50" as="geometry" />
        </mxCell>
        <mxCell id="3YHKIk54glQ2s1RMrXVU-54" value="&lt;div&gt;&lt;font color=&quot;#99ccff&quot;&gt;aid&lt;/font&gt;&lt;/div&gt;&lt;div&gt;&lt;font color=&quot;#99ccff&quot;&gt;(작성자 id)&lt;/font&gt;&lt;/div&gt;" style="ellipse;whiteSpace=wrap;html=1;" parent="1" vertex="1">
          <mxGeometry x="710" y="860" width="80" height="50" as="geometry" />
        </mxCell>
        <mxCell id="3YHKIk54glQ2s1RMrXVU-55" style="edgeStyle=none;curved=1;rounded=0;orthogonalLoop=1;jettySize=auto;html=1;exitX=0.5;exitY=1;exitDx=0;exitDy=0;entryX=0.5;entryY=0;entryDx=0;entryDy=0;fontSize=12;startSize=8;endSize=8;" parent="1" source="3YHKIk54glQ2s1RMrXVU-61" target="3YHKIk54glQ2s1RMrXVU-62" edge="1">
          <mxGeometry relative="1" as="geometry" />
        </mxCell>
        <mxCell id="3YHKIk54glQ2s1RMrXVU-56" style="edgeStyle=none;curved=1;rounded=0;orthogonalLoop=1;jettySize=auto;html=1;exitX=0.5;exitY=1;exitDx=0;exitDy=0;entryX=0.5;entryY=0;entryDx=0;entryDy=0;fontSize=12;startSize=8;endSize=8;" parent="1" source="3YHKIk54glQ2s1RMrXVU-61" target="3YHKIk54glQ2s1RMrXVU-63" edge="1">
          <mxGeometry relative="1" as="geometry" />
        </mxCell>
        <mxCell id="3YHKIk54glQ2s1RMrXVU-57" style="edgeStyle=none;curved=1;rounded=0;orthogonalLoop=1;jettySize=auto;html=1;exitX=0.5;exitY=1;exitDx=0;exitDy=0;entryX=0.5;entryY=0;entryDx=0;entryDy=0;fontSize=12;startSize=8;endSize=8;" parent="1" source="3YHKIk54glQ2s1RMrXVU-61" target="3YHKIk54glQ2s1RMrXVU-64" edge="1">
          <mxGeometry relative="1" as="geometry" />
        </mxCell>
        <mxCell id="3YHKIk54glQ2s1RMrXVU-58" style="edgeStyle=none;curved=1;rounded=0;orthogonalLoop=1;jettySize=auto;html=1;exitX=0.5;exitY=1;exitDx=0;exitDy=0;entryX=0.5;entryY=0;entryDx=0;entryDy=0;fontSize=12;startSize=8;endSize=8;" parent="1" source="3YHKIk54glQ2s1RMrXVU-61" target="3YHKIk54glQ2s1RMrXVU-65" edge="1">
          <mxGeometry relative="1" as="geometry" />
        </mxCell>
        <mxCell id="3YHKIk54glQ2s1RMrXVU-59" style="edgeStyle=none;curved=1;rounded=0;orthogonalLoop=1;jettySize=auto;html=1;exitX=0.5;exitY=1;exitDx=0;exitDy=0;entryX=0.5;entryY=0;entryDx=0;entryDy=0;fontSize=12;startSize=8;endSize=8;" parent="1" source="3YHKIk54glQ2s1RMrXVU-61" target="3YHKIk54glQ2s1RMrXVU-66" edge="1">
          <mxGeometry relative="1" as="geometry" />
        </mxCell>
        <mxCell id="3YHKIk54glQ2s1RMrXVU-60" style="edgeStyle=none;curved=1;rounded=0;orthogonalLoop=1;jettySize=auto;html=1;exitX=0.5;exitY=1;exitDx=0;exitDy=0;entryX=0.5;entryY=0;entryDx=0;entryDy=0;fontSize=12;startSize=8;endSize=8;" parent="1" source="3YHKIk54glQ2s1RMrXVU-61" target="3YHKIk54glQ2s1RMrXVU-67" edge="1">
          <mxGeometry relative="1" as="geometry" />
        </mxCell>
        <mxCell id="3YHKIk54glQ2s1RMrXVU-61" value="&lt;div&gt;data&lt;/div&gt;&lt;div&gt;(자료실)&lt;/div&gt;" style="rounded=0;whiteSpace=wrap;html=1;" parent="1" vertex="1">
          <mxGeometry x="340" y="950" width="120" height="60" as="geometry" />
        </mxCell>
        <mxCell id="3YHKIk54glQ2s1RMrXVU-62" value="&lt;font color=&quot;#ff0000&quot;&gt;&lt;u&gt;no&lt;/u&gt;&lt;/font&gt;&lt;div&gt;&lt;font color=&quot;#ff0000&quot;&gt;&lt;u&gt;(글 번호)&lt;/u&gt;&lt;/font&gt;&lt;/div&gt;" style="ellipse;whiteSpace=wrap;html=1;" parent="1" vertex="1">
          <mxGeometry x="110" y="1070" width="80" height="50" as="geometry" />
        </mxCell>
        <mxCell id="3YHKIk54glQ2s1RMrXVU-63" value="&lt;div&gt;title&lt;/div&gt;&lt;div&gt;(글 제목)&lt;/div&gt;" style="ellipse;whiteSpace=wrap;html=1;" parent="1" vertex="1">
          <mxGeometry x="210" y="1070" width="80" height="50" as="geometry" />
        </mxCell>
        <mxCell id="3YHKIk54glQ2s1RMrXVU-64" value="&lt;div&gt;content&lt;/div&gt;&lt;div&gt;(글 내용)&lt;/div&gt;" style="ellipse;whiteSpace=wrap;html=1;" parent="1" vertex="1">
          <mxGeometry x="410" y="1070" width="80" height="50" as="geometry" />
        </mxCell>
        <mxCell id="3YHKIk54glQ2s1RMrXVU-65" value="resdate&lt;div&gt;(작성일시)&lt;/div&gt;" style="ellipse;whiteSpace=wrap;html=1;" parent="1" vertex="1">
          <mxGeometry x="510" y="1070" width="80" height="50" as="geometry" />
        </mxCell>
        <mxCell id="3YHKIk54glQ2s1RMrXVU-66" value="&lt;div&gt;visited&lt;/div&gt;&lt;div&gt;(읽은 횟수)&lt;/div&gt;" style="ellipse;whiteSpace=wrap;html=1;" parent="1" vertex="1">
          <mxGeometry x="610" y="1070" width="80" height="50" as="geometry" />
        </mxCell>
        <mxCell id="3YHKIk54glQ2s1RMrXVU-67" value="&lt;div&gt;datafile&lt;/div&gt;&lt;div&gt;(자료 파일)&lt;/div&gt;" style="ellipse;whiteSpace=wrap;html=1;" parent="1" vertex="1">
          <mxGeometry x="310" y="1070" width="80" height="50" as="geometry" />
        </mxCell>
        <mxCell id="mTA2DD2SOj9Okm3Y-5bd-1" style="edgeStyle=none;curved=1;rounded=0;orthogonalLoop=1;jettySize=auto;html=1;exitX=0.5;exitY=1;exitDx=0;exitDy=0;entryX=0.5;entryY=0;entryDx=0;entryDy=0;fontSize=12;startSize=8;endSize=8;" edge="1" parent="1" source="mTA2DD2SOj9Okm3Y-5bd-6" target="mTA2DD2SOj9Okm3Y-5bd-7">
          <mxGeometry relative="1" as="geometry" />
        </mxCell>
        <mxCell id="mTA2DD2SOj9Okm3Y-5bd-2" style="edgeStyle=none;curved=1;rounded=0;orthogonalLoop=1;jettySize=auto;html=1;exitX=0.5;exitY=1;exitDx=0;exitDy=0;entryX=0.5;entryY=0;entryDx=0;entryDy=0;fontSize=12;startSize=8;endSize=8;" edge="1" parent="1" source="mTA2DD2SOj9Okm3Y-5bd-6" target="mTA2DD2SOj9Okm3Y-5bd-9">
          <mxGeometry relative="1" as="geometry" />
        </mxCell>
        <mxCell id="mTA2DD2SOj9Okm3Y-5bd-3" style="edgeStyle=none;curved=1;rounded=0;orthogonalLoop=1;jettySize=auto;html=1;exitX=0.5;exitY=1;exitDx=0;exitDy=0;entryX=0.5;entryY=0;entryDx=0;entryDy=0;fontSize=12;startSize=8;endSize=8;" edge="1" parent="1" source="mTA2DD2SOj9Okm3Y-5bd-6" target="mTA2DD2SOj9Okm3Y-5bd-8">
          <mxGeometry relative="1" as="geometry" />
        </mxCell>
        <mxCell id="mTA2DD2SOj9Okm3Y-5bd-4" style="edgeStyle=none;curved=1;rounded=0;orthogonalLoop=1;jettySize=auto;html=1;exitX=0.5;exitY=1;exitDx=0;exitDy=0;entryX=0.5;entryY=0;entryDx=0;entryDy=0;fontSize=12;startSize=8;endSize=8;" edge="1" parent="1" source="mTA2DD2SOj9Okm3Y-5bd-6" target="mTA2DD2SOj9Okm3Y-5bd-10">
          <mxGeometry relative="1" as="geometry" />
        </mxCell>
        <mxCell id="mTA2DD2SOj9Okm3Y-5bd-5" style="edgeStyle=none;curved=1;rounded=0;orthogonalLoop=1;jettySize=auto;html=1;exitX=0.5;exitY=1;exitDx=0;exitDy=0;entryX=0.5;entryY=0;entryDx=0;entryDy=0;fontSize=12;startSize=8;endSize=8;" edge="1" parent="1" source="mTA2DD2SOj9Okm3Y-5bd-6" target="mTA2DD2SOj9Okm3Y-5bd-11">
          <mxGeometry relative="1" as="geometry" />
        </mxCell>
        <mxCell id="mTA2DD2SOj9Okm3Y-5bd-6" value="traffic&lt;br&gt;(교통편)" style="rounded=0;whiteSpace=wrap;html=1;" vertex="1" parent="1">
          <mxGeometry x="340" y="60" width="120" height="60" as="geometry" />
        </mxCell>
        <mxCell id="mTA2DD2SOj9Okm3Y-5bd-7" value="ttype&lt;br&gt;(종류)" style="ellipse;whiteSpace=wrap;html=1;" vertex="1" parent="1">
          <mxGeometry x="267" y="180" width="80" height="50" as="geometry" />
        </mxCell>
        <mxCell id="mTA2DD2SOj9Okm3Y-5bd-8" value="route&lt;br&gt;(노선도)" style="ellipse;whiteSpace=wrap;html=1;" vertex="1" parent="1">
          <mxGeometry x="450" y="180" width="80" height="50" as="geometry" />
        </mxCell>
        <mxCell id="mTA2DD2SOj9Okm3Y-5bd-9" value="&lt;font color=&quot;#ff0000&quot;&gt;&lt;u&gt;tno&lt;br&gt;(연번)&lt;/u&gt;&lt;/font&gt;" style="ellipse;whiteSpace=wrap;html=1;" vertex="1" parent="1">
          <mxGeometry x="170" y="180" width="80" height="50" as="geometry" />
        </mxCell>
        <mxCell id="mTA2DD2SOj9Okm3Y-5bd-10" value="coment&lt;br&gt;(설명)" style="ellipse;whiteSpace=wrap;html=1;" vertex="1" parent="1">
          <mxGeometry x="550" y="180" width="80" height="50" as="geometry" />
        </mxCell>
        <mxCell id="mTA2DD2SOj9Okm3Y-5bd-11" value="no&lt;br&gt;(번호)" style="ellipse;whiteSpace=wrap;html=1;" vertex="1" parent="1">
          <mxGeometry x="360" y="180" width="80" height="50" as="geometry" />
        </mxCell>
      </root>
    </mxGraphModel>
  </diagram>
  <diagram name="페이지-1의 복사본" id="i12eS7KyyVexgTmtQla4">
    <mxGraphModel dx="2514" dy="904" grid="1" gridSize="10" guides="1" tooltips="1" connect="1" arrows="1" fold="1" page="1" pageScale="1" pageWidth="827" pageHeight="1169" math="0" shadow="0">
      <root>
        <mxCell id="X37Q_VBcMtABrZpvMCLL-0" />
        <mxCell id="X37Q_VBcMtABrZpvMCLL-1" parent="X37Q_VBcMtABrZpvMCLL-0" />
        <mxCell id="X37Q_VBcMtABrZpvMCLL-2" style="edgeStyle=none;curved=1;rounded=0;orthogonalLoop=1;jettySize=auto;html=1;exitX=0.5;exitY=1;exitDx=0;exitDy=0;entryX=0.5;entryY=0;entryDx=0;entryDy=0;fontSize=12;startSize=8;endSize=8;" edge="1" parent="X37Q_VBcMtABrZpvMCLL-1" source="X37Q_VBcMtABrZpvMCLL-6" target="X37Q_VBcMtABrZpvMCLL-7">
          <mxGeometry relative="1" as="geometry" />
        </mxCell>
        <mxCell id="X37Q_VBcMtABrZpvMCLL-3" style="edgeStyle=none;curved=1;rounded=0;orthogonalLoop=1;jettySize=auto;html=1;exitX=0.5;exitY=1;exitDx=0;exitDy=0;entryX=0.5;entryY=0;entryDx=0;entryDy=0;fontSize=12;startSize=8;endSize=8;" edge="1" parent="X37Q_VBcMtABrZpvMCLL-1" source="X37Q_VBcMtABrZpvMCLL-6" target="X37Q_VBcMtABrZpvMCLL-9">
          <mxGeometry relative="1" as="geometry" />
        </mxCell>
        <mxCell id="X37Q_VBcMtABrZpvMCLL-4" style="edgeStyle=none;curved=1;rounded=0;orthogonalLoop=1;jettySize=auto;html=1;exitX=0.5;exitY=1;exitDx=0;exitDy=0;entryX=0.5;entryY=0;entryDx=0;entryDy=0;fontSize=12;startSize=8;endSize=8;" edge="1" parent="X37Q_VBcMtABrZpvMCLL-1" source="X37Q_VBcMtABrZpvMCLL-6" target="X37Q_VBcMtABrZpvMCLL-8">
          <mxGeometry relative="1" as="geometry" />
        </mxCell>
        <mxCell id="X37Q_VBcMtABrZpvMCLL-5" style="edgeStyle=none;curved=1;rounded=0;orthogonalLoop=1;jettySize=auto;html=1;exitX=0.5;exitY=1;exitDx=0;exitDy=0;entryX=0.5;entryY=0;entryDx=0;entryDy=0;fontSize=12;startSize=8;endSize=8;" edge="1" parent="X37Q_VBcMtABrZpvMCLL-1" source="X37Q_VBcMtABrZpvMCLL-6" target="X37Q_VBcMtABrZpvMCLL-10">
          <mxGeometry relative="1" as="geometry" />
        </mxCell>
        <mxCell id="kWowoV-kS5GGo6uTGpHv-1" style="edgeStyle=none;curved=1;rounded=0;orthogonalLoop=1;jettySize=auto;html=1;exitX=0.5;exitY=1;exitDx=0;exitDy=0;entryX=0.5;entryY=0;entryDx=0;entryDy=0;fontSize=12;startSize=8;endSize=8;" edge="1" parent="X37Q_VBcMtABrZpvMCLL-1" source="X37Q_VBcMtABrZpvMCLL-6" target="kWowoV-kS5GGo6uTGpHv-0">
          <mxGeometry relative="1" as="geometry" />
        </mxCell>
        <mxCell id="X37Q_VBcMtABrZpvMCLL-6" value="traffic&lt;br&gt;(교통편)" style="rounded=0;whiteSpace=wrap;html=1;" vertex="1" parent="X37Q_VBcMtABrZpvMCLL-1">
          <mxGeometry x="-360" y="50" width="120" height="60" as="geometry" />
        </mxCell>
        <mxCell id="X37Q_VBcMtABrZpvMCLL-7" value="ttype&lt;br&gt;(종류)" style="ellipse;whiteSpace=wrap;html=1;" vertex="1" parent="X37Q_VBcMtABrZpvMCLL-1">
          <mxGeometry x="-433" y="170" width="80" height="50" as="geometry" />
        </mxCell>
        <mxCell id="X37Q_VBcMtABrZpvMCLL-8" value="route&lt;br&gt;(노선도)" style="ellipse;whiteSpace=wrap;html=1;" vertex="1" parent="X37Q_VBcMtABrZpvMCLL-1">
          <mxGeometry x="-250" y="170" width="80" height="50" as="geometry" />
        </mxCell>
        <mxCell id="X37Q_VBcMtABrZpvMCLL-9" value="&lt;font color=&quot;#ff0000&quot;&gt;&lt;u&gt;tno&lt;br&gt;(연번)&lt;/u&gt;&lt;/font&gt;" style="ellipse;whiteSpace=wrap;html=1;" vertex="1" parent="X37Q_VBcMtABrZpvMCLL-1">
          <mxGeometry x="-530" y="170" width="80" height="50" as="geometry" />
        </mxCell>
        <mxCell id="X37Q_VBcMtABrZpvMCLL-10" value="coment&lt;br&gt;(설명)" style="ellipse;whiteSpace=wrap;html=1;" vertex="1" parent="X37Q_VBcMtABrZpvMCLL-1">
          <mxGeometry x="-150" y="170" width="80" height="50" as="geometry" />
        </mxCell>
        <mxCell id="X37Q_VBcMtABrZpvMCLL-11" style="edgeStyle=none;curved=1;rounded=0;orthogonalLoop=1;jettySize=auto;html=1;exitX=0.5;exitY=1;exitDx=0;exitDy=0;entryX=0.5;entryY=0;entryDx=0;entryDy=0;fontSize=12;startSize=8;endSize=8;" edge="1" parent="X37Q_VBcMtABrZpvMCLL-1" source="X37Q_VBcMtABrZpvMCLL-19" target="X37Q_VBcMtABrZpvMCLL-20">
          <mxGeometry relative="1" as="geometry" />
        </mxCell>
        <mxCell id="X37Q_VBcMtABrZpvMCLL-12" style="edgeStyle=none;curved=1;rounded=0;orthogonalLoop=1;jettySize=auto;html=1;exitX=0.5;exitY=1;exitDx=0;exitDy=0;entryX=0.5;entryY=0;entryDx=0;entryDy=0;fontSize=12;startSize=8;endSize=8;" edge="1" parent="X37Q_VBcMtABrZpvMCLL-1" source="X37Q_VBcMtABrZpvMCLL-19" target="X37Q_VBcMtABrZpvMCLL-21">
          <mxGeometry relative="1" as="geometry" />
        </mxCell>
        <mxCell id="X37Q_VBcMtABrZpvMCLL-13" style="edgeStyle=none;curved=1;rounded=0;orthogonalLoop=1;jettySize=auto;html=1;exitX=0.5;exitY=1;exitDx=0;exitDy=0;entryX=0.5;entryY=0;entryDx=0;entryDy=0;fontSize=12;startSize=8;endSize=8;" edge="1" parent="X37Q_VBcMtABrZpvMCLL-1" source="X37Q_VBcMtABrZpvMCLL-19" target="X37Q_VBcMtABrZpvMCLL-22">
          <mxGeometry relative="1" as="geometry" />
        </mxCell>
        <mxCell id="X37Q_VBcMtABrZpvMCLL-14" style="edgeStyle=none;curved=1;rounded=0;orthogonalLoop=1;jettySize=auto;html=1;exitX=0.5;exitY=1;exitDx=0;exitDy=0;entryX=0.5;entryY=0;entryDx=0;entryDy=0;fontSize=12;startSize=8;endSize=8;" edge="1" parent="X37Q_VBcMtABrZpvMCLL-1" source="X37Q_VBcMtABrZpvMCLL-19" target="X37Q_VBcMtABrZpvMCLL-23">
          <mxGeometry relative="1" as="geometry" />
        </mxCell>
        <mxCell id="X37Q_VBcMtABrZpvMCLL-15" style="edgeStyle=none;curved=1;rounded=0;orthogonalLoop=1;jettySize=auto;html=1;exitX=0.5;exitY=1;exitDx=0;exitDy=0;entryX=0.5;entryY=0;entryDx=0;entryDy=0;fontSize=12;startSize=8;endSize=8;" edge="1" parent="X37Q_VBcMtABrZpvMCLL-1" source="X37Q_VBcMtABrZpvMCLL-19" target="X37Q_VBcMtABrZpvMCLL-24">
          <mxGeometry relative="1" as="geometry" />
        </mxCell>
        <mxCell id="X37Q_VBcMtABrZpvMCLL-16" style="edgeStyle=none;curved=1;rounded=0;orthogonalLoop=1;jettySize=auto;html=1;exitX=0.5;exitY=1;exitDx=0;exitDy=0;entryX=0.5;entryY=0;entryDx=0;entryDy=0;fontSize=12;startSize=8;endSize=8;" edge="1" parent="X37Q_VBcMtABrZpvMCLL-1" source="X37Q_VBcMtABrZpvMCLL-19" target="X37Q_VBcMtABrZpvMCLL-25">
          <mxGeometry relative="1" as="geometry" />
        </mxCell>
        <mxCell id="X37Q_VBcMtABrZpvMCLL-17" style="edgeStyle=none;curved=1;rounded=0;orthogonalLoop=1;jettySize=auto;html=1;exitX=0.5;exitY=1;exitDx=0;exitDy=0;entryX=0.5;entryY=0;entryDx=0;entryDy=0;fontSize=12;startSize=8;endSize=8;" edge="1" parent="X37Q_VBcMtABrZpvMCLL-1" source="X37Q_VBcMtABrZpvMCLL-19" target="X37Q_VBcMtABrZpvMCLL-26">
          <mxGeometry relative="1" as="geometry" />
        </mxCell>
        <mxCell id="X37Q_VBcMtABrZpvMCLL-18" style="edgeStyle=none;curved=1;rounded=0;orthogonalLoop=1;jettySize=auto;html=1;exitX=0.5;exitY=1;exitDx=0;exitDy=0;entryX=0.5;entryY=0;entryDx=0;entryDy=0;fontSize=12;startSize=8;endSize=8;" edge="1" parent="X37Q_VBcMtABrZpvMCLL-1" source="X37Q_VBcMtABrZpvMCLL-19" target="X37Q_VBcMtABrZpvMCLL-27">
          <mxGeometry relative="1" as="geometry" />
        </mxCell>
        <mxCell id="X37Q_VBcMtABrZpvMCLL-19" value="안내사항&lt;br&gt;(guide)" style="rounded=0;whiteSpace=wrap;html=1;" vertex="1" parent="X37Q_VBcMtABrZpvMCLL-1">
          <mxGeometry x="340" y="300" width="120" height="60" as="geometry" />
        </mxCell>
        <mxCell id="X37Q_VBcMtABrZpvMCLL-20" value="&lt;font color=&quot;#ff0000&quot;&gt;&lt;u&gt;pcode&lt;br&gt;(장소코드)&lt;/u&gt;&lt;/font&gt;" style="ellipse;whiteSpace=wrap;html=1;" vertex="1" parent="X37Q_VBcMtABrZpvMCLL-1">
          <mxGeometry x="10" y="410" width="80" height="50" as="geometry" />
        </mxCell>
        <mxCell id="X37Q_VBcMtABrZpvMCLL-21" value="pname&lt;div&gt;(장소이름)&lt;/div&gt;" style="ellipse;whiteSpace=wrap;html=1;" vertex="1" parent="X37Q_VBcMtABrZpvMCLL-1">
          <mxGeometry x="110" y="410" width="80" height="50" as="geometry" />
        </mxCell>
        <mxCell id="X37Q_VBcMtABrZpvMCLL-22" value="ptype&lt;br&gt;(장소 종류)" style="ellipse;whiteSpace=wrap;html=1;" vertex="1" parent="X37Q_VBcMtABrZpvMCLL-1">
          <mxGeometry x="210" y="410" width="80" height="50" as="geometry" />
        </mxCell>
        <mxCell id="X37Q_VBcMtABrZpvMCLL-23" value="paddr&lt;div&gt;(장소 주소)&lt;/div&gt;" style="ellipse;whiteSpace=wrap;html=1;" vertex="1" parent="X37Q_VBcMtABrZpvMCLL-1">
          <mxGeometry x="310" y="410" width="80" height="50" as="geometry" />
        </mxCell>
        <mxCell id="X37Q_VBcMtABrZpvMCLL-24" value="ptel&lt;div&gt;(장소 연락처)&lt;/div&gt;" style="ellipse;whiteSpace=wrap;html=1;" vertex="1" parent="X37Q_VBcMtABrZpvMCLL-1">
          <mxGeometry x="410" y="410" width="80" height="50" as="geometry" />
        </mxCell>
        <mxCell id="X37Q_VBcMtABrZpvMCLL-25" value="pgps&lt;div&gt;(장소 gps값)&lt;/div&gt;" style="ellipse;whiteSpace=wrap;html=1;" vertex="1" parent="X37Q_VBcMtABrZpvMCLL-1">
          <mxGeometry x="510" y="410" width="80" height="50" as="geometry" />
        </mxCell>
        <mxCell id="X37Q_VBcMtABrZpvMCLL-26" value="pcoment&lt;div&gt;(장소 설명)&lt;/div&gt;" style="ellipse;whiteSpace=wrap;html=1;" vertex="1" parent="X37Q_VBcMtABrZpvMCLL-1">
          <mxGeometry x="610" y="410" width="80" height="50" as="geometry" />
        </mxCell>
        <mxCell id="X37Q_VBcMtABrZpvMCLL-27" value="premark&lt;div&gt;(참고사항)&lt;/div&gt;" style="ellipse;whiteSpace=wrap;html=1;" vertex="1" parent="X37Q_VBcMtABrZpvMCLL-1">
          <mxGeometry x="710" y="410" width="80" height="50" as="geometry" />
        </mxCell>
        <mxCell id="X37Q_VBcMtABrZpvMCLL-28" style="edgeStyle=none;curved=1;rounded=0;orthogonalLoop=1;jettySize=auto;html=1;exitX=0.5;exitY=1;exitDx=0;exitDy=0;entryX=0.5;entryY=0;entryDx=0;entryDy=0;fontSize=12;startSize=8;endSize=8;" edge="1" parent="X37Q_VBcMtABrZpvMCLL-1" source="X37Q_VBcMtABrZpvMCLL-33" target="X37Q_VBcMtABrZpvMCLL-34">
          <mxGeometry relative="1" as="geometry" />
        </mxCell>
        <mxCell id="X37Q_VBcMtABrZpvMCLL-29" style="edgeStyle=none;curved=1;rounded=0;orthogonalLoop=1;jettySize=auto;html=1;exitX=0.5;exitY=1;exitDx=0;exitDy=0;entryX=0.5;entryY=0;entryDx=0;entryDy=0;fontSize=12;startSize=8;endSize=8;" edge="1" parent="X37Q_VBcMtABrZpvMCLL-1" source="X37Q_VBcMtABrZpvMCLL-33" target="X37Q_VBcMtABrZpvMCLL-35">
          <mxGeometry relative="1" as="geometry" />
        </mxCell>
        <mxCell id="X37Q_VBcMtABrZpvMCLL-30" style="edgeStyle=none;curved=1;rounded=0;orthogonalLoop=1;jettySize=auto;html=1;exitX=0.5;exitY=1;exitDx=0;exitDy=0;entryX=0.5;entryY=0;entryDx=0;entryDy=0;fontSize=12;startSize=8;endSize=8;" edge="1" parent="X37Q_VBcMtABrZpvMCLL-1" source="X37Q_VBcMtABrZpvMCLL-33" target="X37Q_VBcMtABrZpvMCLL-36">
          <mxGeometry relative="1" as="geometry" />
        </mxCell>
        <mxCell id="X37Q_VBcMtABrZpvMCLL-31" style="edgeStyle=none;curved=1;rounded=0;orthogonalLoop=1;jettySize=auto;html=1;exitX=0.5;exitY=1;exitDx=0;exitDy=0;entryX=0.5;entryY=0;entryDx=0;entryDy=0;fontSize=12;startSize=8;endSize=8;" edge="1" parent="X37Q_VBcMtABrZpvMCLL-1" source="X37Q_VBcMtABrZpvMCLL-33" target="X37Q_VBcMtABrZpvMCLL-37">
          <mxGeometry relative="1" as="geometry" />
        </mxCell>
        <mxCell id="X37Q_VBcMtABrZpvMCLL-32" style="edgeStyle=none;curved=1;rounded=0;orthogonalLoop=1;jettySize=auto;html=1;exitX=0.5;exitY=1;exitDx=0;exitDy=0;entryX=0.5;entryY=0;entryDx=0;entryDy=0;fontSize=12;startSize=8;endSize=8;" edge="1" parent="X37Q_VBcMtABrZpvMCLL-1" source="X37Q_VBcMtABrZpvMCLL-33" target="X37Q_VBcMtABrZpvMCLL-38">
          <mxGeometry relative="1" as="geometry" />
        </mxCell>
        <mxCell id="X37Q_VBcMtABrZpvMCLL-33" value="notice&lt;div&gt;(공지사항)&lt;/div&gt;" style="rounded=0;whiteSpace=wrap;html=1;" vertex="1" parent="X37Q_VBcMtABrZpvMCLL-1">
          <mxGeometry x="-360" y="300" width="120" height="60" as="geometry" />
        </mxCell>
        <mxCell id="X37Q_VBcMtABrZpvMCLL-34" value="&lt;font color=&quot;#ff0000&quot;&gt;&lt;u&gt;no&lt;/u&gt;&lt;/font&gt;&lt;div&gt;&lt;font color=&quot;#ff0000&quot;&gt;&lt;u&gt;(글 번호)&lt;/u&gt;&lt;/font&gt;&lt;/div&gt;" style="ellipse;whiteSpace=wrap;html=1;" vertex="1" parent="X37Q_VBcMtABrZpvMCLL-1">
          <mxGeometry x="-540" y="400" width="80" height="50" as="geometry" />
        </mxCell>
        <mxCell id="X37Q_VBcMtABrZpvMCLL-35" value="&lt;span style=&quot;background-color: initial;&quot;&gt;title&lt;/span&gt;&lt;div&gt;&lt;span style=&quot;background-color: initial;&quot;&gt;(글 제목)&lt;/span&gt;&lt;/div&gt;" style="ellipse;whiteSpace=wrap;html=1;" vertex="1" parent="X37Q_VBcMtABrZpvMCLL-1">
          <mxGeometry x="-440" y="400" width="80" height="50" as="geometry" />
        </mxCell>
        <mxCell id="X37Q_VBcMtABrZpvMCLL-36" value="content&lt;br&gt;&lt;div&gt;&lt;span style=&quot;background-color: initial;&quot;&gt;(글 내용)&lt;/span&gt;&lt;/div&gt;" style="ellipse;whiteSpace=wrap;html=1;" vertex="1" parent="X37Q_VBcMtABrZpvMCLL-1">
          <mxGeometry x="-340" y="400" width="80" height="50" as="geometry" />
        </mxCell>
        <mxCell id="X37Q_VBcMtABrZpvMCLL-37" value="resdate&lt;div&gt;(작성일시)&lt;/div&gt;" style="ellipse;whiteSpace=wrap;html=1;" vertex="1" parent="X37Q_VBcMtABrZpvMCLL-1">
          <mxGeometry x="-240" y="400" width="80" height="50" as="geometry" />
        </mxCell>
        <mxCell id="X37Q_VBcMtABrZpvMCLL-38" value="&lt;div&gt;visited&lt;/div&gt;&lt;div&gt;(읽은 횟수)&lt;/div&gt;" style="ellipse;whiteSpace=wrap;html=1;" vertex="1" parent="X37Q_VBcMtABrZpvMCLL-1">
          <mxGeometry x="-140" y="400" width="80" height="50" as="geometry" />
        </mxCell>
        <mxCell id="X37Q_VBcMtABrZpvMCLL-39" style="edgeStyle=none;curved=1;rounded=0;orthogonalLoop=1;jettySize=auto;html=1;exitX=0.5;exitY=1;exitDx=0;exitDy=0;entryX=0.5;entryY=0;entryDx=0;entryDy=0;fontSize=12;startSize=8;endSize=8;" edge="1" parent="X37Q_VBcMtABrZpvMCLL-1" source="X37Q_VBcMtABrZpvMCLL-47" target="X37Q_VBcMtABrZpvMCLL-48">
          <mxGeometry relative="1" as="geometry" />
        </mxCell>
        <mxCell id="X37Q_VBcMtABrZpvMCLL-40" style="edgeStyle=none;curved=1;rounded=0;orthogonalLoop=1;jettySize=auto;html=1;exitX=0.5;exitY=1;exitDx=0;exitDy=0;entryX=0.5;entryY=0;entryDx=0;entryDy=0;fontSize=12;startSize=8;endSize=8;" edge="1" parent="X37Q_VBcMtABrZpvMCLL-1" source="X37Q_VBcMtABrZpvMCLL-47" target="X37Q_VBcMtABrZpvMCLL-50">
          <mxGeometry relative="1" as="geometry" />
        </mxCell>
        <mxCell id="X37Q_VBcMtABrZpvMCLL-41" style="edgeStyle=none;curved=1;rounded=0;orthogonalLoop=1;jettySize=auto;html=1;exitX=0.5;exitY=1;exitDx=0;exitDy=0;entryX=0.5;entryY=0;entryDx=0;entryDy=0;fontSize=12;startSize=8;endSize=8;" edge="1" parent="X37Q_VBcMtABrZpvMCLL-1" source="X37Q_VBcMtABrZpvMCLL-47" target="X37Q_VBcMtABrZpvMCLL-49">
          <mxGeometry relative="1" as="geometry" />
        </mxCell>
        <mxCell id="X37Q_VBcMtABrZpvMCLL-42" style="edgeStyle=none;curved=1;rounded=0;orthogonalLoop=1;jettySize=auto;html=1;exitX=0.5;exitY=1;exitDx=0;exitDy=0;entryX=0.5;entryY=0;entryDx=0;entryDy=0;fontSize=12;startSize=8;endSize=8;" edge="1" parent="X37Q_VBcMtABrZpvMCLL-1" source="X37Q_VBcMtABrZpvMCLL-47" target="X37Q_VBcMtABrZpvMCLL-51">
          <mxGeometry relative="1" as="geometry" />
        </mxCell>
        <mxCell id="X37Q_VBcMtABrZpvMCLL-43" style="edgeStyle=none;curved=1;rounded=0;orthogonalLoop=1;jettySize=auto;html=1;exitX=0.5;exitY=1;exitDx=0;exitDy=0;entryX=0.5;entryY=0;entryDx=0;entryDy=0;fontSize=12;startSize=8;endSize=8;" edge="1" parent="X37Q_VBcMtABrZpvMCLL-1" source="X37Q_VBcMtABrZpvMCLL-47" target="X37Q_VBcMtABrZpvMCLL-52">
          <mxGeometry relative="1" as="geometry" />
        </mxCell>
        <mxCell id="X37Q_VBcMtABrZpvMCLL-44" style="edgeStyle=none;curved=1;rounded=0;orthogonalLoop=1;jettySize=auto;html=1;exitX=0.5;exitY=1;exitDx=0;exitDy=0;entryX=0.5;entryY=0;entryDx=0;entryDy=0;fontSize=12;startSize=8;endSize=8;" edge="1" parent="X37Q_VBcMtABrZpvMCLL-1" source="X37Q_VBcMtABrZpvMCLL-47" target="X37Q_VBcMtABrZpvMCLL-53">
          <mxGeometry relative="1" as="geometry" />
        </mxCell>
        <mxCell id="X37Q_VBcMtABrZpvMCLL-45" style="edgeStyle=none;curved=1;rounded=0;orthogonalLoop=1;jettySize=auto;html=1;exitX=0.5;exitY=1;exitDx=0;exitDy=0;entryX=0.5;entryY=0;entryDx=0;entryDy=0;fontSize=12;startSize=8;endSize=8;" edge="1" parent="X37Q_VBcMtABrZpvMCLL-1" source="X37Q_VBcMtABrZpvMCLL-47" target="X37Q_VBcMtABrZpvMCLL-54">
          <mxGeometry relative="1" as="geometry" />
        </mxCell>
        <mxCell id="X37Q_VBcMtABrZpvMCLL-46" style="edgeStyle=none;curved=1;rounded=0;orthogonalLoop=1;jettySize=auto;html=1;exitX=0.5;exitY=1;exitDx=0;exitDy=0;entryX=0.5;entryY=0;entryDx=0;entryDy=0;fontSize=12;startSize=8;endSize=8;" edge="1" parent="X37Q_VBcMtABrZpvMCLL-1" source="X37Q_VBcMtABrZpvMCLL-47" target="X37Q_VBcMtABrZpvMCLL-55">
          <mxGeometry relative="1" as="geometry" />
        </mxCell>
        <mxCell id="kWowoV-kS5GGo6uTGpHv-15" style="edgeStyle=none;curved=1;rounded=0;orthogonalLoop=1;jettySize=auto;html=1;exitX=0;exitY=0.5;exitDx=0;exitDy=0;entryX=1;entryY=0.5;entryDx=0;entryDy=0;fontSize=12;startSize=8;endSize=8;" edge="1" parent="X37Q_VBcMtABrZpvMCLL-1" source="X37Q_VBcMtABrZpvMCLL-47" target="kWowoV-kS5GGo6uTGpHv-13">
          <mxGeometry relative="1" as="geometry" />
        </mxCell>
        <mxCell id="X37Q_VBcMtABrZpvMCLL-47" value="&lt;div&gt;qna&lt;/div&gt;&lt;div&gt;(묻고 답하기)&lt;/div&gt;" style="rounded=0;whiteSpace=wrap;html=1;" vertex="1" parent="X37Q_VBcMtABrZpvMCLL-1">
          <mxGeometry x="340" y="640" width="120" height="60" as="geometry" />
        </mxCell>
        <mxCell id="X37Q_VBcMtABrZpvMCLL-48" value="&lt;font color=&quot;#ff0000&quot;&gt;&lt;u&gt;no&lt;/u&gt;&lt;/font&gt;&lt;div&gt;&lt;font color=&quot;#ff0000&quot;&gt;&lt;u&gt;(글 번호)&lt;/u&gt;&lt;/font&gt;&lt;/div&gt;" style="ellipse;whiteSpace=wrap;html=1;" vertex="1" parent="X37Q_VBcMtABrZpvMCLL-1">
          <mxGeometry x="10" y="760" width="80" height="50" as="geometry" />
        </mxCell>
        <mxCell id="X37Q_VBcMtABrZpvMCLL-49" value="parno&lt;br&gt;&lt;div&gt;&lt;span style=&quot;background-color: initial;&quot;&gt;(부모글 번호)&lt;/span&gt;&lt;/div&gt;" style="ellipse;whiteSpace=wrap;html=1;" vertex="1" parent="X37Q_VBcMtABrZpvMCLL-1">
          <mxGeometry x="210" y="760" width="80" height="50" as="geometry" />
        </mxCell>
        <mxCell id="X37Q_VBcMtABrZpvMCLL-50" value="plevel&lt;br&gt;&lt;div&gt;&lt;span style=&quot;background-color: initial;&quot;&gt;(글 종류)&lt;/span&gt;&lt;/div&gt;" style="ellipse;whiteSpace=wrap;html=1;" vertex="1" parent="X37Q_VBcMtABrZpvMCLL-1">
          <mxGeometry x="110" y="760" width="80" height="50" as="geometry" />
        </mxCell>
        <mxCell id="X37Q_VBcMtABrZpvMCLL-51" value="&lt;div&gt;title&lt;/div&gt;&lt;div&gt;(글 제목)&lt;/div&gt;" style="ellipse;whiteSpace=wrap;html=1;" vertex="1" parent="X37Q_VBcMtABrZpvMCLL-1">
          <mxGeometry x="310" y="760" width="80" height="50" as="geometry" />
        </mxCell>
        <mxCell id="X37Q_VBcMtABrZpvMCLL-52" value="&lt;div&gt;content&lt;/div&gt;&lt;div&gt;(글 내용)&lt;/div&gt;" style="ellipse;whiteSpace=wrap;html=1;" vertex="1" parent="X37Q_VBcMtABrZpvMCLL-1">
          <mxGeometry x="410" y="760" width="80" height="50" as="geometry" />
        </mxCell>
        <mxCell id="X37Q_VBcMtABrZpvMCLL-53" value="resdate&lt;div&gt;(작성일시)&lt;/div&gt;" style="ellipse;whiteSpace=wrap;html=1;" vertex="1" parent="X37Q_VBcMtABrZpvMCLL-1">
          <mxGeometry x="510" y="760" width="80" height="50" as="geometry" />
        </mxCell>
        <mxCell id="X37Q_VBcMtABrZpvMCLL-54" value="&lt;div&gt;visited&lt;/div&gt;&lt;div&gt;(읽은 횟수)&lt;/div&gt;" style="ellipse;whiteSpace=wrap;html=1;" vertex="1" parent="X37Q_VBcMtABrZpvMCLL-1">
          <mxGeometry x="610" y="760" width="80" height="50" as="geometry" />
        </mxCell>
        <mxCell id="X37Q_VBcMtABrZpvMCLL-55" value="&lt;div&gt;&lt;font color=&quot;#99ccff&quot;&gt;aid&lt;/font&gt;&lt;/div&gt;&lt;div&gt;&lt;font color=&quot;#99ccff&quot;&gt;(작성자 id)&lt;/font&gt;&lt;/div&gt;" style="ellipse;whiteSpace=wrap;html=1;" vertex="1" parent="X37Q_VBcMtABrZpvMCLL-1">
          <mxGeometry x="710" y="760" width="80" height="50" as="geometry" />
        </mxCell>
        <mxCell id="X37Q_VBcMtABrZpvMCLL-56" style="edgeStyle=none;curved=1;rounded=0;orthogonalLoop=1;jettySize=auto;html=1;exitX=0.5;exitY=1;exitDx=0;exitDy=0;entryX=0.5;entryY=0;entryDx=0;entryDy=0;fontSize=12;startSize=8;endSize=8;" edge="1" parent="X37Q_VBcMtABrZpvMCLL-1" source="X37Q_VBcMtABrZpvMCLL-62" target="X37Q_VBcMtABrZpvMCLL-63">
          <mxGeometry relative="1" as="geometry" />
        </mxCell>
        <mxCell id="X37Q_VBcMtABrZpvMCLL-57" style="edgeStyle=none;curved=1;rounded=0;orthogonalLoop=1;jettySize=auto;html=1;exitX=0.5;exitY=1;exitDx=0;exitDy=0;entryX=0.5;entryY=0;entryDx=0;entryDy=0;fontSize=12;startSize=8;endSize=8;" edge="1" parent="X37Q_VBcMtABrZpvMCLL-1" source="X37Q_VBcMtABrZpvMCLL-62" target="X37Q_VBcMtABrZpvMCLL-64">
          <mxGeometry relative="1" as="geometry" />
        </mxCell>
        <mxCell id="X37Q_VBcMtABrZpvMCLL-58" style="edgeStyle=none;curved=1;rounded=0;orthogonalLoop=1;jettySize=auto;html=1;exitX=0.5;exitY=1;exitDx=0;exitDy=0;entryX=0.5;entryY=0;entryDx=0;entryDy=0;fontSize=12;startSize=8;endSize=8;" edge="1" parent="X37Q_VBcMtABrZpvMCLL-1" source="X37Q_VBcMtABrZpvMCLL-62" target="X37Q_VBcMtABrZpvMCLL-65">
          <mxGeometry relative="1" as="geometry" />
        </mxCell>
        <mxCell id="X37Q_VBcMtABrZpvMCLL-59" style="edgeStyle=none;curved=1;rounded=0;orthogonalLoop=1;jettySize=auto;html=1;exitX=0.5;exitY=1;exitDx=0;exitDy=0;entryX=0.5;entryY=0;entryDx=0;entryDy=0;fontSize=12;startSize=8;endSize=8;" edge="1" parent="X37Q_VBcMtABrZpvMCLL-1" source="X37Q_VBcMtABrZpvMCLL-62" target="X37Q_VBcMtABrZpvMCLL-66">
          <mxGeometry relative="1" as="geometry" />
        </mxCell>
        <mxCell id="X37Q_VBcMtABrZpvMCLL-60" style="edgeStyle=none;curved=1;rounded=0;orthogonalLoop=1;jettySize=auto;html=1;exitX=0.5;exitY=1;exitDx=0;exitDy=0;entryX=0.5;entryY=0;entryDx=0;entryDy=0;fontSize=12;startSize=8;endSize=8;" edge="1" parent="X37Q_VBcMtABrZpvMCLL-1" source="X37Q_VBcMtABrZpvMCLL-62" target="X37Q_VBcMtABrZpvMCLL-67">
          <mxGeometry relative="1" as="geometry" />
        </mxCell>
        <mxCell id="X37Q_VBcMtABrZpvMCLL-61" style="edgeStyle=none;curved=1;rounded=0;orthogonalLoop=1;jettySize=auto;html=1;exitX=0.5;exitY=1;exitDx=0;exitDy=0;entryX=0.5;entryY=0;entryDx=0;entryDy=0;fontSize=12;startSize=8;endSize=8;" edge="1" parent="X37Q_VBcMtABrZpvMCLL-1" source="X37Q_VBcMtABrZpvMCLL-62" target="X37Q_VBcMtABrZpvMCLL-68">
          <mxGeometry relative="1" as="geometry" />
        </mxCell>
        <mxCell id="X37Q_VBcMtABrZpvMCLL-62" value="&lt;div&gt;data&lt;/div&gt;&lt;div&gt;(자료실)&lt;/div&gt;" style="rounded=0;whiteSpace=wrap;html=1;" vertex="1" parent="X37Q_VBcMtABrZpvMCLL-1">
          <mxGeometry x="340" y="50" width="120" height="60" as="geometry" />
        </mxCell>
        <mxCell id="X37Q_VBcMtABrZpvMCLL-63" value="&lt;font color=&quot;#ff0000&quot;&gt;&lt;u&gt;no&lt;/u&gt;&lt;/font&gt;&lt;div&gt;&lt;font color=&quot;#ff0000&quot;&gt;&lt;u&gt;(글 번호)&lt;/u&gt;&lt;/font&gt;&lt;/div&gt;" style="ellipse;whiteSpace=wrap;html=1;" vertex="1" parent="X37Q_VBcMtABrZpvMCLL-1">
          <mxGeometry x="110" y="170" width="80" height="50" as="geometry" />
        </mxCell>
        <mxCell id="X37Q_VBcMtABrZpvMCLL-64" value="&lt;div&gt;title&lt;/div&gt;&lt;div&gt;(글 제목)&lt;/div&gt;" style="ellipse;whiteSpace=wrap;html=1;" vertex="1" parent="X37Q_VBcMtABrZpvMCLL-1">
          <mxGeometry x="210" y="170" width="80" height="50" as="geometry" />
        </mxCell>
        <mxCell id="X37Q_VBcMtABrZpvMCLL-65" value="&lt;div&gt;content&lt;/div&gt;&lt;div&gt;(글 내용)&lt;/div&gt;" style="ellipse;whiteSpace=wrap;html=1;" vertex="1" parent="X37Q_VBcMtABrZpvMCLL-1">
          <mxGeometry x="410" y="170" width="80" height="50" as="geometry" />
        </mxCell>
        <mxCell id="X37Q_VBcMtABrZpvMCLL-66" value="resdate&lt;div&gt;(작성일시)&lt;/div&gt;" style="ellipse;whiteSpace=wrap;html=1;" vertex="1" parent="X37Q_VBcMtABrZpvMCLL-1">
          <mxGeometry x="510" y="170" width="80" height="50" as="geometry" />
        </mxCell>
        <mxCell id="X37Q_VBcMtABrZpvMCLL-67" value="&lt;div&gt;visited&lt;/div&gt;&lt;div&gt;(읽은 횟수)&lt;/div&gt;" style="ellipse;whiteSpace=wrap;html=1;" vertex="1" parent="X37Q_VBcMtABrZpvMCLL-1">
          <mxGeometry x="610" y="170" width="80" height="50" as="geometry" />
        </mxCell>
        <mxCell id="X37Q_VBcMtABrZpvMCLL-68" value="&lt;div&gt;datafile&lt;/div&gt;&lt;div&gt;(자료 파일)&lt;/div&gt;" style="ellipse;whiteSpace=wrap;html=1;" vertex="1" parent="X37Q_VBcMtABrZpvMCLL-1">
          <mxGeometry x="310" y="170" width="80" height="50" as="geometry" />
        </mxCell>
        <mxCell id="kWowoV-kS5GGo6uTGpHv-0" value="no&lt;br&gt;(번호)" style="ellipse;whiteSpace=wrap;html=1;" vertex="1" parent="X37Q_VBcMtABrZpvMCLL-1">
          <mxGeometry x="-340" y="170" width="80" height="50" as="geometry" />
        </mxCell>
        <mxCell id="kWowoV-kS5GGo6uTGpHv-2" style="edgeStyle=none;curved=1;rounded=0;orthogonalLoop=1;jettySize=auto;html=1;exitX=0.5;exitY=1;exitDx=0;exitDy=0;entryX=0.5;entryY=0;entryDx=0;entryDy=0;fontSize=12;startSize=8;endSize=8;" edge="1" parent="X37Q_VBcMtABrZpvMCLL-1" source="kWowoV-kS5GGo6uTGpHv-7" target="kWowoV-kS5GGo6uTGpHv-8">
          <mxGeometry relative="1" as="geometry" />
        </mxCell>
        <mxCell id="kWowoV-kS5GGo6uTGpHv-3" style="edgeStyle=none;curved=1;rounded=0;orthogonalLoop=1;jettySize=auto;html=1;exitX=0.5;exitY=1;exitDx=0;exitDy=0;entryX=0.5;entryY=0;entryDx=0;entryDy=0;fontSize=12;startSize=8;endSize=8;" edge="1" parent="X37Q_VBcMtABrZpvMCLL-1" source="kWowoV-kS5GGo6uTGpHv-7" target="kWowoV-kS5GGo6uTGpHv-9">
          <mxGeometry relative="1" as="geometry" />
        </mxCell>
        <mxCell id="kWowoV-kS5GGo6uTGpHv-4" style="edgeStyle=none;curved=1;rounded=0;orthogonalLoop=1;jettySize=auto;html=1;exitX=0.5;exitY=1;exitDx=0;exitDy=0;entryX=0.5;entryY=0;entryDx=0;entryDy=0;fontSize=12;startSize=8;endSize=8;" edge="1" parent="X37Q_VBcMtABrZpvMCLL-1" source="kWowoV-kS5GGo6uTGpHv-7" target="kWowoV-kS5GGo6uTGpHv-10">
          <mxGeometry relative="1" as="geometry" />
        </mxCell>
        <mxCell id="kWowoV-kS5GGo6uTGpHv-5" style="edgeStyle=none;curved=1;rounded=0;orthogonalLoop=1;jettySize=auto;html=1;exitX=0.5;exitY=1;exitDx=0;exitDy=0;entryX=0.5;entryY=0;entryDx=0;entryDy=0;fontSize=12;startSize=8;endSize=8;" edge="1" parent="X37Q_VBcMtABrZpvMCLL-1" source="kWowoV-kS5GGo6uTGpHv-7" target="kWowoV-kS5GGo6uTGpHv-11">
          <mxGeometry relative="1" as="geometry" />
        </mxCell>
        <mxCell id="kWowoV-kS5GGo6uTGpHv-6" style="edgeStyle=none;curved=1;rounded=0;orthogonalLoop=1;jettySize=auto;html=1;exitX=0.5;exitY=1;exitDx=0;exitDy=0;entryX=0.5;entryY=0;entryDx=0;entryDy=0;fontSize=12;startSize=8;endSize=8;" edge="1" parent="X37Q_VBcMtABrZpvMCLL-1" source="kWowoV-kS5GGo6uTGpHv-7" target="kWowoV-kS5GGo6uTGpHv-12">
          <mxGeometry relative="1" as="geometry" />
        </mxCell>
        <mxCell id="kWowoV-kS5GGo6uTGpHv-14" style="edgeStyle=none;curved=1;rounded=0;orthogonalLoop=1;jettySize=auto;html=1;exitX=1;exitY=0.5;exitDx=0;exitDy=0;entryX=0;entryY=0.5;entryDx=0;entryDy=0;fontSize=12;startSize=8;endSize=8;" edge="1" parent="X37Q_VBcMtABrZpvMCLL-1" source="kWowoV-kS5GGo6uTGpHv-7" target="kWowoV-kS5GGo6uTGpHv-13">
          <mxGeometry relative="1" as="geometry" />
        </mxCell>
        <mxCell id="kWowoV-kS5GGo6uTGpHv-7" value="member&lt;div&gt;(회원)&lt;/div&gt;" style="rounded=0;whiteSpace=wrap;html=1;" vertex="1" parent="X37Q_VBcMtABrZpvMCLL-1">
          <mxGeometry x="-360" y="640" width="120" height="60" as="geometry" />
        </mxCell>
        <mxCell id="kWowoV-kS5GGo6uTGpHv-8" value="&lt;font color=&quot;#ff0000&quot;&gt;&lt;u&gt;id&lt;/u&gt;&lt;/font&gt;&lt;br&gt;&lt;div&gt;&lt;font color=&quot;#ff0000&quot;&gt;&lt;u&gt;(아이디)&lt;/u&gt;&lt;/font&gt;&lt;/div&gt;" style="ellipse;whiteSpace=wrap;html=1;" vertex="1" parent="X37Q_VBcMtABrZpvMCLL-1">
          <mxGeometry x="-540" y="740" width="80" height="50" as="geometry" />
        </mxCell>
        <mxCell id="kWowoV-kS5GGo6uTGpHv-9" value="pw&lt;br&gt;&lt;div&gt;&lt;span style=&quot;background-color: initial;&quot;&gt;(비밀번호)&lt;/span&gt;&lt;/div&gt;" style="ellipse;whiteSpace=wrap;html=1;" vertex="1" parent="X37Q_VBcMtABrZpvMCLL-1">
          <mxGeometry x="-440" y="740" width="80" height="50" as="geometry" />
        </mxCell>
        <mxCell id="kWowoV-kS5GGo6uTGpHv-10" value="birth&lt;br&gt;&lt;div&gt;&lt;span style=&quot;background-color: initial;&quot;&gt;(생일)&lt;/span&gt;&lt;/div&gt;" style="ellipse;whiteSpace=wrap;html=1;" vertex="1" parent="X37Q_VBcMtABrZpvMCLL-1">
          <mxGeometry x="-340" y="740" width="80" height="50" as="geometry" />
        </mxCell>
        <mxCell id="kWowoV-kS5GGo6uTGpHv-11" value="&lt;div&gt;email&lt;/div&gt;&lt;div&gt;(이메일)&lt;/div&gt;" style="ellipse;whiteSpace=wrap;html=1;" vertex="1" parent="X37Q_VBcMtABrZpvMCLL-1">
          <mxGeometry x="-240" y="740" width="80" height="50" as="geometry" />
        </mxCell>
        <mxCell id="kWowoV-kS5GGo6uTGpHv-12" value="&lt;div&gt;tel&lt;/div&gt;&lt;div&gt;(전화번호)&lt;/div&gt;" style="ellipse;whiteSpace=wrap;html=1;" vertex="1" parent="X37Q_VBcMtABrZpvMCLL-1">
          <mxGeometry x="-140" y="740" width="80" height="50" as="geometry" />
        </mxCell>
        <mxCell id="kWowoV-kS5GGo6uTGpHv-13" value="글 등록" style="rhombus;whiteSpace=wrap;html=1;" vertex="1" parent="X37Q_VBcMtABrZpvMCLL-1">
          <mxGeometry x="-40" y="630" width="80" height="80" as="geometry" />
        </mxCell>
        <mxCell id="kWowoV-kS5GGo6uTGpHv-16" value="&lt;font color=&quot;#fc0000&quot;&gt;id&lt;/font&gt;" style="text;html=1;align=center;verticalAlign=middle;whiteSpace=wrap;rounded=0;fontSize=16;" vertex="1" parent="X37Q_VBcMtABrZpvMCLL-1">
          <mxGeometry x="-120" y="630" width="60" height="30" as="geometry" />
        </mxCell>
        <mxCell id="kWowoV-kS5GGo6uTGpHv-17" value="&lt;font color=&quot;#99ccff&quot;&gt;aid&lt;/font&gt;" style="text;html=1;align=center;verticalAlign=middle;whiteSpace=wrap;rounded=0;fontSize=16;" vertex="1" parent="X37Q_VBcMtABrZpvMCLL-1">
          <mxGeometry x="60" y="630" width="60" height="30" as="geometry" />
        </mxCell>
        <mxCell id="kWowoV-kS5GGo6uTGpHv-18" value="1" style="text;html=1;align=center;verticalAlign=middle;whiteSpace=wrap;rounded=0;fontSize=16;" vertex="1" parent="X37Q_VBcMtABrZpvMCLL-1">
          <mxGeometry x="-120" y="680" width="60" height="30" as="geometry" />
        </mxCell>
        <mxCell id="kWowoV-kS5GGo6uTGpHv-19" value="8" style="text;html=1;align=center;verticalAlign=middle;whiteSpace=wrap;rounded=0;fontSize=16;rotation=-90;" vertex="1" parent="X37Q_VBcMtABrZpvMCLL-1">
          <mxGeometry x="60" y="680" width="60" height="30" as="geometry" />
        </mxCell>
      </root>
    </mxGraphModel>
  </diagram>
</mxfile>
